<svg width="13" height="15" viewBox="0 0 13 15" fill="none" xmlns="http://www.w3.org/2000/svg">
<g clip-path="url(#clip0_731_815)">
<path d="M12.7275 11.6896C12.4941 12.2136 12.2179 12.696 11.8978 13.1395C11.4615 13.7441 11.1042 14.1626 10.8289 14.395C10.4021 14.7765 9.94482 14.9719 9.45515 14.983C9.10362 14.983 8.67969 14.8858 8.18621 14.6885C7.69111 14.4922 7.23612 14.395 6.82009 14.395C6.38378 14.395 5.91583 14.4922 5.4153 14.6885C4.91401 14.8858 4.51018 14.9885 4.20142 14.9987C3.73186 15.0182 3.26381 14.8172 2.79663 14.395C2.49845 14.1423 2.12548 13.7089 1.67868 13.0951C1.1993 12.4395 0.805188 11.6794 0.496431 10.8127C0.165763 9.87665 0 8.97019 0 8.09263C0 7.08738 0.223494 6.22037 0.671149 5.49382C1.02297 4.91022 1.49101 4.44987 2.0768 4.11191C2.66259 3.77396 3.29554 3.60174 3.97717 3.59073C4.35013 3.59073 4.83923 3.70285 5.44703 3.92322C6.05311 4.14432 6.44227 4.25645 6.61289 4.25645C6.74045 4.25645 7.17277 4.12534 7.90565 3.86396C8.59871 3.62156 9.18364 3.52119 9.66283 3.56073C10.9613 3.66258 11.9368 4.16006 12.5856 5.05633C11.4243 5.7402 10.8498 6.69804 10.8613 7.9268C10.8718 8.8839 11.229 9.68035 11.9311 10.3127C12.2493 10.6063 12.6046 10.8331 13 10.9942C12.9143 11.2359 12.8238 11.4673 12.7275 11.6896ZM9.74953 0.300085C9.74953 1.05026 9.46754 1.75069 8.90547 2.399C8.22717 3.16972 7.40674 3.61508 6.51705 3.5448C6.50572 3.4548 6.49914 3.36008 6.49914 3.26055C6.49914 2.54039 6.82171 1.76967 7.39455 1.1395C7.68054 0.82044 8.04426 0.555142 8.48534 0.34351C8.92547 0.135034 9.34179 0.0197431 9.73333 0C9.74476 0.100286 9.74953 0.200588 9.74953 0.300085Z" fill="black"/>
</g>
<defs>
<clipPath id="clip0_731_815">
<rect width="13" height="15" fill="white"/>
</clipPath>
</defs>
</svg>
